<mxfile host="65bd71144e">
    <diagram id="o1mqyoOElbhxYFIYWolX" name="Page-1">
        <mxGraphModel dx="3347" dy="2590" grid="0" gridSize="10" guides="1" tooltips="1" connect="1" arrows="1" fold="1" page="1" pageScale="1" pageWidth="1654" pageHeight="2336" math="0" shadow="0">
            <root>
                <mxCell id="0"/>
                <mxCell id="1" parent="0"/>
                <mxCell id="6" value="Courier Service" style="swimlane;childLayout=stackLayout;resizeParent=1;resizeParentMax=0;startSize=50;horizontal=0;horizontalStack=1;fontFamily=Helvetica;fontSize=25;strokeColor=#23445d;fillColor=#bac8d3;" parent="1" vertex="1">
                    <mxGeometry x="50" y="34" width="1590" height="2170" as="geometry"/>
                </mxCell>
                <mxCell id="7" value="Customer" style="swimlane;startSize=70;fontFamily=Helvetica;fontSize=25;fontColor=#000000;strokeColor=#C73500;fillColor=#fa6800;strokeWidth=5;" parent="6" vertex="1">
                    <mxGeometry x="50" width="450" height="2170" as="geometry"/>
                </mxCell>
                <mxCell id="12" value="" style="edgeStyle=none;html=1;fontFamily=Helvetica;fontSize=40;fontColor=default;startSize=20;" parent="7" source="10" target="11" edge="1">
                    <mxGeometry relative="1" as="geometry"/>
                </mxCell>
                <mxCell id="10" value="&lt;font style=&quot;font-size: 40px&quot;&gt;شروع&lt;/font&gt;" style="ellipse;whiteSpace=wrap;html=1;aspect=fixed;fontFamily=Helvetica;fontSize=25;fontColor=#ffffff;startSize=20;strokeColor=#006EAF;strokeWidth=5;fillColor=#1ba1e2;" parent="7" vertex="1">
                    <mxGeometry x="130" y="120" width="150" height="150" as="geometry"/>
                </mxCell>
                <mxCell id="14" value="" style="edgeStyle=none;html=1;fontFamily=Helvetica;fontSize=40;fontColor=default;startSize=20;" parent="7" source="11" target="13" edge="1">
                    <mxGeometry relative="1" as="geometry"/>
                </mxCell>
                <mxCell id="11" value="وارد کرد مبدا و مقصد" style="whiteSpace=wrap;html=1;fontSize=25;fillColor=#60a917;strokeColor=#2D7600;fontColor=#ffffff;startSize=20;strokeWidth=5;" parent="7" vertex="1">
                    <mxGeometry x="80" y="360" width="245" height="80" as="geometry"/>
                </mxCell>
                <mxCell id="16" value="" style="edgeStyle=none;html=1;fontFamily=Helvetica;fontSize=40;fontColor=default;startSize=20;" parent="7" source="13" target="15" edge="1">
                    <mxGeometry relative="1" as="geometry"/>
                </mxCell>
                <mxCell id="13" value="وارد کردم وزن&amp;nbsp;" style="whiteSpace=wrap;html=1;fontSize=25;fillColor=#60a917;strokeColor=#2D7600;fontColor=#ffffff;startSize=20;strokeWidth=5;" parent="7" vertex="1">
                    <mxGeometry x="80" y="520" width="245" height="80" as="geometry"/>
                </mxCell>
                <mxCell id="18" value="" style="edgeStyle=orthogonalEdgeStyle;html=1;fontFamily=Helvetica;fontSize=40;fontColor=default;startSize=20;" parent="7" source="15" target="17" edge="1">
                    <mxGeometry relative="1" as="geometry"/>
                </mxCell>
                <mxCell id="15" value="وارد کردن ابعاد" style="whiteSpace=wrap;html=1;fontSize=25;fillColor=#60a917;strokeColor=#2D7600;fontColor=#ffffff;startSize=20;strokeWidth=5;" parent="7" vertex="1">
                    <mxGeometry x="80" y="680" width="245" height="80" as="geometry"/>
                </mxCell>
                <mxCell id="17" value="سفارش پرداخت در محل می باشد&amp;nbsp;" style="whiteSpace=wrap;html=1;fontSize=25;fillColor=#60a917;strokeColor=#2D7600;fontColor=#ffffff;startSize=20;strokeWidth=5;" parent="7" vertex="1">
                    <mxGeometry x="52.5" y="840" width="300" height="80" as="geometry"/>
                </mxCell>
                <mxCell id="8" value="Postex" style="swimlane;startSize=70;fontFamily=Helvetica;fontSize=25;strokeColor=#006EAF;fillColor=#1ba1e2;fontColor=#ffffff;strokeWidth=4;" parent="6" vertex="1">
                    <mxGeometry x="500" width="510" height="2170" as="geometry"/>
                </mxCell>
                <mxCell id="19" value="ارسال اطعات سمت کوریر ها" style="whiteSpace=wrap;html=1;fontSize=25;fillColor=#60a917;strokeColor=#2D7600;fontColor=#ffffff;startSize=20;strokeWidth=5;" parent="8" vertex="1">
                    <mxGeometry x="105" y="170" width="300" height="80" as="geometry"/>
                </mxCell>
                <mxCell id="51" value="نمایش قیمت و مدت زمان ارسال" style="whiteSpace=wrap;html=1;fontSize=40;fillColor=#60a917;strokeColor=#2D7600;fontColor=#ffffff;startSize=20;strokeWidth=5;" parent="8" vertex="1">
                    <mxGeometry x="7" y="1322" width="356" height="104" as="geometry"/>
                </mxCell>
                <mxCell id="28" value="&lt;font style=&quot;font-size: 40px&quot;&gt;پایان&amp;nbsp;&lt;/font&gt;" style="ellipse;whiteSpace=wrap;html=1;aspect=fixed;fontFamily=Helvetica;fontSize=25;fontColor=#ffffff;startSize=20;strokeColor=#006EAF;strokeWidth=5;fillColor=#1ba1e2;" parent="8" vertex="1">
                    <mxGeometry x="304" y="1982" width="150" height="150" as="geometry"/>
                </mxCell>
                <mxCell id="53" style="edgeStyle=orthogonalEdgeStyle;html=1;exitX=0;exitY=1;exitDx=0;exitDy=0;entryX=0;entryY=0.5;entryDx=0;entryDy=0;fontFamily=Helvetica;fontSize=40;fontColor=default;startSize=20;" parent="8" source="51" target="28" edge="1">
                    <mxGeometry relative="1" as="geometry"/>
                </mxCell>
                <mxCell id="56" style="edgeStyle=orthogonalEdgeStyle;html=1;exitX=0.25;exitY=1;exitDx=0;exitDy=0;" edge="1" parent="8" source="54" target="28">
                    <mxGeometry relative="1" as="geometry"/>
                </mxCell>
                <mxCell id="54" value="عدم نمایش کوریر" style="whiteSpace=wrap;html=1;fontSize=40;fillColor=#60a917;strokeColor=#2D7600;fontColor=#ffffff;startSize=20;strokeWidth=5;" vertex="1" parent="8">
                    <mxGeometry x="105" y="1606" width="356" height="104" as="geometry"/>
                </mxCell>
                <mxCell id="9" value="Courier" style="swimlane;startSize=70;fontFamily=Helvetica;fontSize=25;fontColor=#000000;strokeColor=#B09500;fillColor=#e3c800;strokeWidth=5;" parent="6" vertex="1">
                    <mxGeometry x="1010" width="580" height="2170" as="geometry"/>
                </mxCell>
                <mxCell id="34" value="" style="edgeStyle=orthogonalEdgeStyle;html=1;fontFamily=Helvetica;fontSize=40;fontColor=default;startSize=20;" parent="9" source="25" target="33" edge="1">
                    <mxGeometry relative="1" as="geometry"/>
                </mxCell>
                <mxCell id="25" value="آیا در مبدا و مقصد نماینده دارد" style="rhombus;whiteSpace=wrap;html=1;fontFamily=Helvetica;fontSize=40;fontColor=#ffffff;startSize=20;strokeColor=#6F0000;strokeWidth=5;fillColor=#a20025;" parent="9" vertex="1">
                    <mxGeometry x="98" y="104" width="226" height="212" as="geometry"/>
                </mxCell>
                <mxCell id="30" value="خیر" style="text;html=1;strokeColor=none;fillColor=none;align=center;verticalAlign=middle;whiteSpace=wrap;rounded=0;fontFamily=Helvetica;fontSize=40;fontColor=default;startSize=20;" parent="9" vertex="1">
                    <mxGeometry x="348" y="158" width="60" height="30" as="geometry"/>
                </mxCell>
                <mxCell id="33" value="آیا محدودیت وزنی دارد" style="rhombus;whiteSpace=wrap;html=1;fontFamily=Helvetica;fontSize=40;fontColor=#ffffff;startSize=20;strokeColor=#6F0000;strokeWidth=5;fillColor=#a20025;" parent="9" vertex="1">
                    <mxGeometry x="98" y="396" width="226" height="212" as="geometry"/>
                </mxCell>
                <mxCell id="35" value="بله" style="text;html=1;strokeColor=none;fillColor=none;align=center;verticalAlign=middle;whiteSpace=wrap;rounded=0;fontFamily=Helvetica;fontSize=40;fontColor=default;startSize=20;" parent="9" vertex="1">
                    <mxGeometry x="220" y="334" width="60" height="30" as="geometry"/>
                </mxCell>
                <mxCell id="39" value="بله" style="text;html=1;strokeColor=none;fillColor=none;align=center;verticalAlign=middle;whiteSpace=wrap;rounded=0;fontFamily=Helvetica;fontSize=40;fontColor=default;startSize=20;" parent="9" vertex="1">
                    <mxGeometry x="336" y="468" width="60" height="30" as="geometry"/>
                </mxCell>
                <mxCell id="40" value="خیر" style="text;html=1;strokeColor=none;fillColor=none;align=center;verticalAlign=middle;whiteSpace=wrap;rounded=0;fontFamily=Helvetica;fontSize=40;fontColor=default;startSize=20;" parent="9" vertex="1">
                    <mxGeometry x="220" y="612" width="60" height="30" as="geometry"/>
                </mxCell>
                <mxCell id="42" value="بله" style="text;html=1;strokeColor=none;fillColor=none;align=center;verticalAlign=middle;whiteSpace=wrap;rounded=0;fontFamily=Helvetica;fontSize=40;fontColor=default;startSize=20;" parent="9" vertex="1">
                    <mxGeometry x="328" y="756" width="60" height="30" as="geometry"/>
                </mxCell>
                <mxCell id="49" value="" style="edgeStyle=orthogonalEdgeStyle;html=1;fontFamily=Helvetica;fontSize=40;fontColor=default;startSize=20;" parent="9" source="43" target="48" edge="1">
                    <mxGeometry relative="1" as="geometry"/>
                </mxCell>
                <mxCell id="43" value="COD&amp;nbsp;&lt;br&gt;ارسال میکند؟" style="rhombus;whiteSpace=wrap;html=1;fontFamily=Helvetica;fontSize=40;fontColor=#ffffff;startSize=20;strokeColor=#6F0000;strokeWidth=5;fillColor=#a20025;" parent="9" vertex="1">
                    <mxGeometry x="98" y="980" width="226" height="212" as="geometry"/>
                </mxCell>
                <mxCell id="45" value="خیر" style="text;html=1;strokeColor=none;fillColor=none;align=center;verticalAlign=middle;whiteSpace=wrap;rounded=0;fontFamily=Helvetica;fontSize=40;fontColor=default;startSize=20;" parent="9" vertex="1">
                    <mxGeometry x="228" y="920" width="60" height="30" as="geometry"/>
                </mxCell>
                <mxCell id="47" value="خیر" style="text;html=1;strokeColor=none;fillColor=none;align=center;verticalAlign=middle;whiteSpace=wrap;rounded=0;fontFamily=Helvetica;fontSize=40;fontColor=default;startSize=20;" parent="9" vertex="1">
                    <mxGeometry x="350" y="1040" width="60" height="30" as="geometry"/>
                </mxCell>
                <mxCell id="48" value="ارسال قیمت و&amp;nbsp;&lt;br&gt;SLA به سمت پستکس" style="whiteSpace=wrap;html=1;fontSize=40;fillColor=#60a917;strokeColor=#2D7600;fontColor=#ffffff;startSize=20;strokeWidth=5;" parent="9" vertex="1">
                    <mxGeometry x="33" y="1320" width="356" height="100" as="geometry"/>
                </mxCell>
                <mxCell id="50" value="بله" style="text;html=1;strokeColor=none;fillColor=none;align=center;verticalAlign=middle;whiteSpace=wrap;rounded=0;fontFamily=Helvetica;fontSize=40;fontColor=default;startSize=20;" parent="9" vertex="1">
                    <mxGeometry x="220" y="1244" width="60" height="30" as="geometry"/>
                </mxCell>
                <mxCell id="20" value="" style="edgeStyle=orthogonalEdgeStyle;html=1;fontFamily=Helvetica;fontSize=40;fontColor=default;startSize=20;" parent="6" source="17" target="19" edge="1">
                    <mxGeometry relative="1" as="geometry"/>
                </mxCell>
                <mxCell id="22" value="" style="edgeStyle=orthogonalEdgeStyle;html=1;fontFamily=Helvetica;fontSize=40;fontColor=default;startSize=20;entryX=0;entryY=0.5;entryDx=0;entryDy=0;" parent="6" source="19" target="25" edge="1">
                    <mxGeometry relative="1" as="geometry">
                        <mxPoint x="1150" y="210" as="targetPoint"/>
                    </mxGeometry>
                </mxCell>
                <mxCell id="52" value="" style="edgeStyle=orthogonalEdgeStyle;html=1;fontFamily=Helvetica;fontSize=40;fontColor=default;startSize=20;" parent="6" source="48" target="51" edge="1">
                    <mxGeometry relative="1" as="geometry"/>
                </mxCell>
                <mxCell id="29" style="edgeStyle=orthogonalEdgeStyle;html=1;exitX=1;exitY=0.5;exitDx=0;exitDy=0;entryX=0.75;entryY=1;entryDx=0;entryDy=0;fontFamily=Helvetica;fontSize=40;fontColor=default;startSize=20;" parent="6" source="25" target="54" edge="1">
                    <mxGeometry relative="1" as="geometry">
                        <Array as="points">
                            <mxPoint x="1530" y="210"/>
                            <mxPoint x="1530" y="1772"/>
                            <mxPoint x="879" y="1772"/>
                            <mxPoint x="879" y="1710"/>
                        </Array>
                    </mxGeometry>
                </mxCell>
                <mxCell id="36" style="edgeStyle=orthogonalEdgeStyle;html=1;exitX=1;exitY=0.5;exitDx=0;exitDy=0;entryX=1;entryY=0.5;entryDx=0;entryDy=0;fontFamily=Helvetica;fontSize=40;fontColor=default;startSize=20;" parent="6" source="33" target="54" edge="1">
                    <mxGeometry relative="1" as="geometry">
                        <Array as="points">
                            <mxPoint x="1476" y="502"/>
                            <mxPoint x="1476" y="1658"/>
                        </Array>
                    </mxGeometry>
                </mxCell>
                <mxCell id="46" style="edgeStyle=orthogonalEdgeStyle;html=1;exitX=1;exitY=0.5;exitDx=0;exitDy=0;fontFamily=Helvetica;fontSize=40;fontColor=default;startSize=20;" parent="6" source="43" edge="1">
                    <mxGeometry relative="1" as="geometry">
                        <Array as="points">
                            <mxPoint x="1560" y="1086"/>
                            <mxPoint x="1560" y="1587"/>
                            <mxPoint x="879" y="1587"/>
                        </Array>
                        <mxPoint x="874" y="1596" as="targetPoint"/>
                    </mxGeometry>
                </mxCell>
                <mxCell id="41" style="edgeStyle=orthogonalEdgeStyle;html=1;exitX=1;exitY=0.5;exitDx=0;exitDy=0;fontFamily=Helvetica;fontSize=40;fontColor=default;startSize=20;" parent="1" source="37" target="54" edge="1">
                    <mxGeometry relative="1" as="geometry">
                        <Array as="points">
                            <mxPoint x="1560" y="828"/>
                            <mxPoint x="1560" y="1568"/>
                            <mxPoint x="929" y="1568"/>
                        </Array>
                    </mxGeometry>
                </mxCell>
                <mxCell id="44" value="" style="edgeStyle=orthogonalEdgeStyle;html=1;fontFamily=Helvetica;fontSize=40;fontColor=default;startSize=20;" parent="1" source="37" target="43" edge="1">
                    <mxGeometry relative="1" as="geometry"/>
                </mxCell>
                <mxCell id="37" value="آیا محدودیت ابعادی دارد" style="rhombus;whiteSpace=wrap;html=1;fontFamily=Helvetica;fontSize=40;fontColor=#ffffff;startSize=20;strokeColor=#6F0000;strokeWidth=5;fillColor=#a20025;" parent="1" vertex="1">
                    <mxGeometry x="1158" y="722" width="226" height="212" as="geometry"/>
                </mxCell>
                <mxCell id="38" value="" style="edgeStyle=orthogonalEdgeStyle;html=1;fontFamily=Helvetica;fontSize=40;fontColor=default;startSize=20;" parent="1" source="33" target="37" edge="1">
                    <mxGeometry relative="1" as="geometry"/>
                </mxCell>
            </root>
        </mxGraphModel>
    </diagram>
</mxfile>